<?xml version="1.0" encoding="utf-8"?>
<svg viewBox="0 0 200 200" style="fill-rule:evenodd;clip-rule:evenodd;stroke-linejoin:round;stroke-miterlimit:1.41421;" xmlns="http://www.w3.org/2000/svg">
  <rect id="badge.-small.-light" y="0.321" width="1260" height="280" style="fill:none;" x="0"/>
  <g transform="matrix(1.0738639831542969, 0, 0, 1.0738639831542969, -50.928977966308594, -51.93302917480469)">
    <g>
      <path d="M225.656,166.222c1.339,0 2.426,-1.087 2.426,-2.426l0,-4.852c0,-1.338 -1.087,-2.425 -2.426,-2.425l-171.148,0c-1.339,0 -2.426,1.087 -2.426,2.425l0,4.852c0,1.339 1.087,2.426 2.426,2.426l171.148,0Z" style="fill:#8c8c8c;"/>
      <path d="M225.656,125.516c1.339,0 2.426,-1.087 2.426,-2.426l0,-4.851c0,-1.339 -1.087,-2.426 -2.426,-2.426l-171.148,0c-1.339,0 -2.426,1.087 -2.426,2.426l0,4.851c0,1.339 1.087,2.426 2.426,2.426l171.148,0Z" style="fill:#8c8c8c;"/>
      <path d="M225.656,145.869c1.339,0 2.426,-1.087 2.426,-2.426l0,-4.851c0,-1.339 -1.087,-2.426 -2.426,-2.426l-171.148,0c-1.339,0 -2.426,1.087 -2.426,2.426l0,4.851c0,1.339 1.087,2.426 2.426,2.426l171.148,0Z" style="fill:#8c8c8c;"/>
      <path d="M225.656,105.163c1.339,0 2.426,-1.086 2.426,-2.425l0,-4.852c0,-1.339 -1.087,-2.426 -2.426,-2.426l-171.148,0c-1.339,0 -2.426,1.087 -2.426,2.426l0,4.852c0,1.339 1.087,2.425 2.426,2.425l171.148,0Z" style="fill:#8c8c8c;"/>
      <path d="M225.656,186.574c1.339,0 2.426,-1.087 2.426,-2.425l0,-4.852c0,-1.339 -1.087,-2.426 -2.426,-2.426l-171.148,0c-1.339,0 -2.426,1.087 -2.426,2.426l0,4.852c0,1.338 1.087,2.425 2.426,2.425l171.148,0Z" style="fill:#8c8c8c;"/>
      <path d="M114.878,226.592c0,1.338 1.087,2.425 2.425,2.425l4.852,0c1.339,0 2.426,-1.087 2.426,-2.425l0,-171.149c0,-1.339 -1.087,-2.426 -2.426,-2.426l-4.852,0c-1.338,0 -2.425,1.087 -2.425,2.426l0,171.149Z" style="fill:#8c8c8c;"/>
      <path d="M155.583,226.592c0,1.338 1.087,2.425 2.426,2.425l4.851,0c1.339,0 2.426,-1.087 2.426,-2.425l0,-171.149c0,-1.339 -1.087,-2.426 -2.426,-2.426l-4.851,0c-1.339,0 -2.426,1.087 -2.426,2.426l0,171.149Z" style="fill:#8c8c8c;"/>
      <path d="M135.23,226.592c0,1.338 1.087,2.425 2.426,2.425l4.852,0c1.338,0 2.425,-1.087 2.425,-2.425l0,-171.149c0,-1.339 -1.087,-2.426 -2.425,-2.426l-4.852,0c-1.339,0 -2.426,1.087 -2.426,2.426l0,171.149Z" style="fill:#8c8c8c;"/>
      <path d="M175.936,226.592c0,1.338 1.087,2.425 2.426,2.425l4.851,0c1.339,0 2.426,-1.087 2.426,-2.425l0,-171.149c0,-1.339 -1.087,-2.426 -2.426,-2.426l-4.851,0c-1.339,0 -2.426,1.087 -2.426,2.426l0,171.149Z" style="fill:#8c8c8c;"/>
      <path d="M94.525,226.592c0,1.338 1.087,2.425 2.426,2.425l4.851,0c1.339,0 2.426,-1.087 2.426,-2.425l0,-171.149c0,-1.339 -1.087,-2.426 -2.426,-2.426l-4.851,0c-1.339,0 -2.426,1.087 -2.426,2.426l0,171.149Z" style="fill:#8c8c8c;"/>
    </g>
    <path d="M189.069,210.998c11.587,0 20.994,-9.407 20.994,-20.994l0,-97.973c0,-11.587 -9.407,-20.995 -20.994,-20.995l-97.974,0c-11.587,0 -20.994,9.408 -20.994,20.995l0,97.973c0,11.587 9.407,20.994 20.994,20.994l97.974,0Z" style="fill:#333;"/>
    <path d="M180.029,133.06c0,5.108 -0.801,9.686 -2.403,13.734c-1.602,4.048 -3.885,7.5 -6.851,10.357c-2.965,2.857 -6.558,5.065 -10.779,6.624c-4.221,1.558 -8.994,2.402 -14.319,2.532l0,15.52c0,0.346 -0.086,0.649 -0.259,0.909c-0.174,0.26 -0.477,0.465 -0.91,0.617c-0.432,0.151 -1.006,0.271 -1.72,0.357c-0.715,0.087 -1.613,0.13 -2.695,0.13c-1.082,0 -1.981,-0.043 -2.695,-0.13c-0.714,-0.086 -1.277,-0.206 -1.688,-0.357c-0.412,-0.152 -0.715,-0.357 -0.909,-0.617c-0.195,-0.26 -0.293,-0.563 -0.293,-0.909l0,-15.52c-5.411,-0.13 -10.238,-0.909 -14.48,-2.338c-4.243,-1.428 -7.836,-3.495 -10.78,-6.201c-2.944,-2.706 -5.195,-6.028 -6.753,-9.968c-1.559,-3.939 -2.338,-8.463 -2.338,-13.571l0,-33.183c0,-0.303 0.097,-0.584 0.292,-0.844c0.195,-0.26 0.498,-0.476 0.909,-0.649c0.412,-0.173 0.974,-0.303 1.689,-0.39c0.714,-0.086 1.612,-0.13 2.695,-0.13c1.082,0 1.98,0.044 2.694,0.13c0.715,0.087 1.288,0.217 1.721,0.39c0.433,0.173 0.736,0.389 0.909,0.649c0.173,0.26 0.26,0.541 0.26,0.844l0,32.209c0,3.593 0.476,6.829 1.429,9.708c0.952,2.878 2.381,5.324 4.285,7.337c1.905,2.013 4.319,3.572 7.241,4.676c2.922,1.104 6.331,1.699 10.227,1.786l0,-55.716c0,-0.303 0.098,-0.584 0.293,-0.844c0.194,-0.26 0.519,-0.476 0.974,-0.649c0.454,-0.173 1.039,-0.303 1.753,-0.39c0.714,-0.086 1.569,-0.13 2.565,-0.13c1.082,0 1.98,0.044 2.695,0.13c0.714,0.087 1.288,0.217 1.72,0.39c0.433,0.173 0.736,0.389 0.91,0.649c0.173,0.26 0.259,0.541 0.259,0.844l0,55.716c3.896,-0.044 7.295,-0.639 10.195,-1.786c2.901,-1.147 5.314,-2.727 7.241,-4.741c1.926,-2.013 3.376,-4.437 4.35,-7.272c0.974,-2.836 1.461,-5.985 1.461,-9.449l0,-32.468c0,-0.303 0.087,-0.584 0.26,-0.844c0.173,-0.26 0.476,-0.476 0.909,-0.649c0.433,-0.173 0.996,-0.303 1.689,-0.39c0.692,-0.086 1.601,-0.13 2.727,-0.13c1.039,0 1.916,0.044 2.63,0.13c0.714,0.087 1.277,0.217 1.688,0.39c0.412,0.173 0.715,0.389 0.909,0.649c0.195,0.26 0.293,0.541 0.293,0.844l0,32.014Z" style="fill:#fff;fill-rule:nonzero;"/>
    <path d="M180.029,133.06c0,5.108 -0.801,9.686 -2.403,13.734c-1.602,4.048 -3.885,7.5 -6.851,10.357c-2.965,2.857 -6.558,5.065 -10.779,6.624c-4.221,1.558 -8.994,2.402 -14.319,2.532l0,15.52c0,0.346 -0.086,0.649 -0.259,0.909c-0.174,0.26 -0.477,0.465 -0.91,0.617c-0.432,0.151 -1.006,0.271 -1.72,0.357c-0.715,0.087 -1.613,0.13 -2.695,0.13c-1.082,0 -1.981,-0.043 -2.695,-0.13c-0.714,-0.086 -1.277,-0.206 -1.688,-0.357c-0.412,-0.152 -0.715,-0.357 -0.909,-0.617c-0.195,-0.26 -0.293,-0.563 -0.293,-0.909l0,-15.52c-5.411,-0.13 -10.238,-0.909 -14.48,-2.338c-4.243,-1.428 -7.836,-3.495 -10.78,-6.201c-2.944,-2.706 -5.195,-6.028 -6.753,-9.968c-1.559,-3.939 -2.338,-8.463 -2.338,-13.571l0,-33.183c0,-0.303 0.097,-0.584 0.292,-0.844c0.195,-0.26 0.498,-0.476 0.909,-0.649c0.412,-0.173 0.974,-0.303 1.689,-0.39c0.714,-0.086 1.612,-0.13 2.695,-0.13c1.082,0 1.98,0.044 2.694,0.13c0.715,0.087 1.288,0.217 1.721,0.39c0.433,0.173 0.736,0.389 0.909,0.649c0.173,0.26 0.26,0.541 0.26,0.844l0,32.209c0,3.593 0.476,6.829 1.429,9.708c0.952,2.878 2.381,5.324 4.285,7.337c1.905,2.013 4.319,3.572 7.241,4.676c2.922,1.104 6.331,1.699 10.227,1.786l0,-55.716c0,-0.303 0.098,-0.584 0.293,-0.844c0.194,-0.26 0.519,-0.476 0.974,-0.649c0.454,-0.173 1.039,-0.303 1.753,-0.39c0.714,-0.086 1.569,-0.13 2.565,-0.13c1.082,0 1.98,0.044 2.695,0.13c0.714,0.087 1.288,0.217 1.72,0.39c0.433,0.173 0.736,0.389 0.91,0.649c0.173,0.26 0.259,0.541 0.259,0.844l0,55.716c3.896,-0.044 7.295,-0.639 10.195,-1.786c2.901,-1.147 5.314,-2.727 7.241,-4.741c1.926,-2.013 3.376,-4.437 4.35,-7.272c0.974,-2.836 1.461,-5.985 1.461,-9.449l0,-32.468c0,-0.303 0.087,-0.584 0.26,-0.844c0.173,-0.26 0.476,-0.476 0.909,-0.649c0.433,-0.173 0.996,-0.303 1.689,-0.39c0.692,-0.086 1.601,-0.13 2.727,-0.13c1.039,0 1.916,0.044 2.63,0.13c0.714,0.087 1.277,0.217 1.688,0.39c0.412,0.173 0.715,0.389 0.909,0.649c0.195,0.26 0.293,0.541 0.293,0.844l0,32.014Z" style="fill:#fff;fill-rule:nonzero;"/>
  </g>
</svg>
